<svg version="1.1" id="Layer_1" xmlns="http://www.w3.org/2000/svg" xmlns:xlink="http://www.w3.org/1999/xlink" x="0px" y="0px"
	 width="100%" viewBox="0 0 1080 1080" enable-background="new 0 0 1080 1080" xml:space="preserve">
<path fill="#000000" opacity="1.000000" stroke="none"
	d="
M474.387787,548.075745
	C472.925171,551.924744 470.286011,555.747314 470.198639,559.627258
	C469.763702,578.948792 469.972443,598.285522 470.017456,617.616699
	C470.030334,623.159119 472.974548,625.996948 478.458740,625.997559
	C519.787781,626.002075 561.116882,626.002563 602.445923,625.997314
	C609.104858,625.996460 610.991943,624.163147 610.995789,617.662231
	C611.007507,597.830933 611.093506,577.998718 610.891235,558.169495
	C610.863403,555.442200 610.063110,552.164368 608.407593,550.127014
	C604.833557,545.728821 600.684998,541.725708 596.394348,537.994629
	C580.092102,523.818909 563.619690,509.839111 547.257751,495.731628
	C543.254028,492.279633 539.722595,491.699554 535.494141,495.140900
	C527.877808,501.339386 520.567017,507.914093 513.149475,514.355774
	C500.405304,525.423340 487.677155,536.509277 474.387787,548.075745
M578.635376,485.969025
	C569.290955,477.684174 560.110596,469.203827 550.547668,461.179352
	C543.507446,455.271729 539.573669,452.924866 530.595825,461.790497
	C525.350586,466.970123 519.609070,471.653656 514.004639,476.459900
	C511.634369,478.492584 509.042572,480.266907 506.000000,482.577454
	C506.000000,480.022949 506.018524,478.367920 505.996643,476.713379
	C505.920776,470.975006 503.995239,469.011108 498.439362,469.001587
	C493.939636,468.993866 489.439941,468.997192 484.940216,469.000702
	C478.564545,469.005646 477.005463,470.516266 477.001556,476.716492
	C476.995605,486.215912 477.076874,495.716553 476.924072,505.213501
	C476.898712,506.788055 476.304504,508.799469 475.227783,509.830505
	C471.450287,513.447693 467.319244,516.692749 463.374237,520.138367
	C457.440002,525.321533 451.692902,530.730225 445.595215,535.711243
	C440.647675,539.752808 439.492950,545.299866 443.144745,550.473877
	C446.021088,554.549194 452.073883,555.441956 456.588379,551.782532
	C464.216431,545.599365 471.473816,538.960693 478.937317,532.572266
	C490.120483,522.999939 501.398682,513.538086 512.538696,503.916077
	C521.234497,496.405182 529.734558,488.666931 538.473206,481.207245
	C539.284180,480.514923 541.593323,480.543610 542.513306,481.203857
	C545.429504,483.296753 547.991638,485.877350 550.735352,488.216949
	C564.176941,499.678680 577.684448,511.063690 591.067749,522.592896
	C602.003967,532.014038 612.739197,541.668640 623.681213,551.082947
	C628.796509,555.484070 633.823303,555.037415 638.287659,550.216980
	C641.662415,546.572998 641.216736,540.621704 637.082825,536.644348
	C633.284668,532.990051 629.392456,529.425659 625.416992,525.964905
	C610.089600,512.622131 594.712097,499.336853 578.635376,485.969025
z"/>
<path fill="#FFFFFF" opacity="1.000000" stroke="none"
	d="
M474.665039,547.831665
	C487.677155,536.509277 500.405304,525.423340 513.149475,514.355774
	C520.567017,507.914093 527.877808,501.339386 535.494141,495.140900
	C539.722595,491.699554 543.254028,492.279633 547.257751,495.731628
	C563.619690,509.839111 580.092102,523.818909 596.394348,537.994629
	C600.684998,541.725708 604.833557,545.728821 608.407593,550.127014
	C610.063110,552.164368 610.863403,555.442200 610.891235,558.169495
	C611.093506,577.998718 611.007507,597.830933 610.995789,617.662231
	C610.991943,624.163147 609.104858,625.996460 602.445923,625.997314
	C561.116882,626.002563 519.787781,626.002075 478.458740,625.997559
	C472.974548,625.996948 470.030334,623.159119 470.017456,617.616699
	C469.972443,598.285522 469.763702,578.948792 470.198639,559.627258
	C470.286011,555.747314 472.925171,551.924744 474.665039,547.831665
M547.014099,546.479187
	C544.776550,549.229919 542.539062,551.980713 540.359863,554.659790
	C539.637817,553.273743 538.911804,551.661255 537.998535,550.162842
	C532.342529,540.882935 518.365967,536.728027 509.799072,546.489990
	C505.749298,551.104675 503.853027,561.354370 509.089844,569.163330
	C512.605408,574.405640 516.639282,579.327637 520.719788,584.157593
	C527.359924,592.017212 534.227905,599.684204 540.738281,607.133301
	C546.000732,601.097900 551.682007,595.004211 556.872742,588.517944
	C562.824036,581.081177 568.798401,573.587891 573.903381,565.571899
	C578.140625,558.918457 575.712463,548.781189 569.982483,544.471008
	C562.552979,538.882446 554.187256,539.442627 547.014099,546.479187
z"/>
<path fill="#FFFFFF" opacity="1.000000" stroke="none"
	d="
M578.994385,485.999573
	C594.712097,499.336853 610.089600,512.622131 625.416992,525.964905
	C629.392456,529.425659 633.284668,532.990051 637.082825,536.644348
	C641.216736,540.621704 641.662415,546.572998 638.287659,550.216980
	C633.823303,555.037415 628.796509,555.484070 623.681213,551.082947
	C612.739197,541.668640 602.003967,532.014038 591.067749,522.592896
	C577.684448,511.063690 564.176941,499.678680 550.735352,488.216949
	C547.991638,485.877350 545.429504,483.296753 542.513306,481.203857
	C541.593323,480.543610 539.284180,480.514923 538.473206,481.207245
	C529.734558,488.666931 521.234497,496.405182 512.538696,503.916077
	C501.398682,513.538086 490.120483,522.999939 478.937317,532.572266
	C471.473816,538.960693 464.216431,545.599365 456.588379,551.782532
	C452.073883,555.441956 446.021088,554.549194 443.144745,550.473877
	C439.492950,545.299866 440.647675,539.752808 445.595215,535.711243
	C451.692902,530.730225 457.440002,525.321533 463.374237,520.138367
	C467.319244,516.692749 471.450287,513.447693 475.227783,509.830505
	C476.304504,508.799469 476.898712,506.788055 476.924072,505.213501
	C477.076874,495.716553 476.995605,486.215912 477.001556,476.716492
	C477.005463,470.516266 478.564545,469.005646 484.940216,469.000702
	C489.439941,468.997192 493.939636,468.993866 498.439362,469.001587
	C503.995239,469.011108 505.920776,470.975006 505.996643,476.713379
	C506.018524,478.367920 506.000000,480.022949 506.000000,482.577454
	C509.042572,480.266907 511.634369,478.492584 514.004639,476.459900
	C519.609070,471.653656 525.350586,466.970123 530.595825,461.790497
	C539.573669,452.924866 543.507446,455.271729 550.547668,461.179352
	C560.110596,469.203827 569.290955,477.684174 578.994385,485.999573
z"/>
<path fill="#000000" opacity="1.000000" stroke="none"
	d="
M547.277466,546.226440
	C554.187256,539.442627 562.552979,538.882446 569.982483,544.471008
	C575.712463,548.781189 578.140625,558.918457 573.903381,565.571899
	C568.798401,573.587891 562.824036,581.081177 556.872742,588.517944
	C551.682007,595.004211 546.000732,601.097900 540.738281,607.133301
	C534.227905,599.684204 527.359924,592.017212 520.719788,584.157593
	C516.639282,579.327637 512.605408,574.405640 509.089844,569.163330
	C503.853027,561.354370 505.749298,551.104675 509.799072,546.489990
	C518.365967,536.728027 532.342529,540.882935 537.998535,550.162842
	C538.911804,551.661255 539.637817,553.273743 540.359863,554.659790
	C542.539062,551.980713 544.776550,549.229919 547.277466,546.226440
z"/>
</svg>
