<svg xmlns="http://www.w3.org/2000/svg" xmlns:xlink="http://www.w3.org/1999/xlink" width="212" height="232" viewBox="0 0 212 232">
  <defs>
    <clipPath id="clip-path">
      <rect id="Rectangle_2" data-name="Rectangle 2" width="212" height="232" transform="translate(-4813 -1175)" fill="none"/>
    </clipPath>
  </defs>
  <g id="Mask_Group_1" data-name="Mask Group 1" transform="translate(4813 1175)" clip-path="url(#clip-path)">
    <g id="Group_4" data-name="Group 4" transform="translate(-70 -266.818)">
      <g id="Group_3" data-name="Group 3">
        <g id="Group_2" data-name="Group 2">
          <g id="logo2" transform="translate(-4888 -897.2)">
            <g id="Group_1" data-name="Group 1" transform="translate(0 301.481)">
              <path id="Path_1" data-name="Path 1" d="M0,1961.257V1916.1H9.126v17.78H27V1916.1h9.126v45.157H27v-19.746H9.126v19.746Z" transform="translate(0 -1916.084)" fill="#fff"/>
              <path id="Path_2" data-name="Path 2" d="M289.4,1961.257V1916.1h33.482v7.647H298.526v10.007H321.2v7.615H298.526v12.288h25.238v7.615H289.4Z" transform="translate(-243.865 -1916.084)" fill="#fff"/>
              <path id="Path_3" data-name="Path 3" d="M573.014,1961.257H563.1L559.153,1951H541.106l-3.729,10.259H527.7l17.591-45.157h9.645Zm-16.788-17.874L550,1926.626l-6.1,16.757Z" transform="translate(-444.671 -1916.084)" fill="#fff"/>
              <path id="Path_4" data-name="Path 4" d="M848,1963.2v-44.8h9.126v37.18H879.8v7.615Z" transform="translate(-714.574 -1918.022)" fill="#fff"/>
              <path id="Path_5" data-name="Path 5" d="M1054.406,1961.173v-37.526H1041V1916h35.89v7.647h-13.374v37.526Z" transform="translate(-877.207 -1916)" fill="#fff"/>
              <path id="Path_6" data-name="Path 6" d="M1306.8,1961.257V1916.1h9.126v17.78H1333.8V1916.1h9.126v45.157H1333.8v-19.746h-17.874v19.746Z" transform="translate(-1101.186 -1916.084)" fill="#fff"/>
              <path id="Path_7" data-name="Path 7" d="M1582.952,1961.173v-19.007L1566.4,1916h10.683l10.636,17.874L1598.136,1916h10.51l-16.6,26.213v18.944h-9.094Z" transform="translate(-1319.94 -1916)" fill="#fff"/>
              <path id="Path_8" data-name="Path 8" d="M1968.4,1961.173v-45.157h8.874l18.488,30.162V1916h8.465v45.157h-9.157l-18.2-29.454v29.454H1968.4Z" transform="translate(-1658.689 -1916)" fill="#fff"/>
              <path id="Path_9" data-name="Path 9" d="M2255.6,1961.257V1916.1h9.126v45.157Z" transform="translate(-1900.7 -1916.084)" fill="#fff"/>
              <path id="Path_10" data-name="Path 10" d="M2369.6,1961.257V1916.1h9.126v20.061l18.425-20.061h12.257l-17.009,17.591,17.937,27.566h-11.8l-12.414-21.194-7.4,7.552v13.641Z" transform="translate(-1996.764 -1916.084)" fill="#fff"/>
              <path id="Path_11" data-name="Path 11" d="M2674.514,1961.257H2664.6L2660.653,1951h-18.047l-3.729,10.259H2629.2l17.591-45.157h9.645Zm-16.788-17.874-6.215-16.757-6.1,16.757Z" transform="translate(-2215.518 -1916.084)" fill="#fff"/>
              <path id="Path_12" data-name="Path 12" d="M2948.2,1961.257V1916.1h9.126v17.78H2975.2V1916.1h9.126v45.157H2975.2v-19.746h-17.874v19.746Z" transform="translate(-2484.326 -1916.084)" fill="#fff"/>
            </g>
            <path id="Path_13" data-name="Path 13" d="M1190.689,37.588a40.006,40.006,0,0,0-10.731-21.54,59.492,59.492,0,0,0-11.045-8.89A41.077,41.077,0,0,0,1140.12.408a44.378,44.378,0,0,0-22.154,9.6,126.666,126.666,0,0,0-15.734,15.419c-.787.9-1.573,1.778-2.407,2.706a.567.567,0,0,1-.834.031h0c-4.232-4.122-8.418-8.276-12.7-12.336A59.015,59.015,0,0,0,1072.4,5.711a41.122,41.122,0,0,0-13.421-4.232,41.761,41.761,0,0,0-16.206,1.227A46.175,46.175,0,0,0,1017.283,19.4,39.438,39.438,0,0,0,1008.74,44.9a77.948,77.948,0,0,0,.85,8.953,37.714,37.714,0,0,0,10.825,21.808c6.4,6.482,12.745,13.028,19.18,19.479q16.4,16.45,32.9,32.79c3.635,3.619,7.364,7.143,11.045,10.7,2.517,2.423,5.066,4.815,7.537,7.285,4.83,4.815,9.724,9.582,14.4,14.538a21.643,21.643,0,0,1,5.995,13.122,24.445,24.445,0,0,1-3.131,15.026,22.326,22.326,0,0,1-9.755,9.094c-6.357,3.005-12.839,2.8-19.274.3a36.089,36.089,0,0,1-14.082-10.432c-4.642-5.381-9.519-10.526-14.349-15.734-.173-.189-.33-.393-.5-.582.142-.173.252-.3.346-.425a21.71,21.71,0,0,0,4.484-18.8,22.221,22.221,0,1,0-11.753,24.592.7.7,0,0,1,1.023.189c1.086,1.212,2.219,2.376,3.3,3.587,3.792,4.17,7.6,8.323,11.344,12.524a48.5,48.5,0,0,0,13.012,10.636,33.655,33.655,0,0,0,22.783,3.808,28.775,28.775,0,0,0,16.033-8.906c6.939-7.379,9.535-16.238,8.512-26.213a29.116,29.116,0,0,0-6.734-15.7,94.787,94.787,0,0,0-7.191-7.694c-9.629-9.425-19.353-18.771-28.982-28.211q-11.777-11.565-23.412-23.3c-5.837-5.853-11.628-11.769-17.418-17.669-3.682-3.745-7.411-7.427-10.982-11.281a24.506,24.506,0,0,1-5.995-10.652c-.614-2.455-1.117-4.925-1.51-7.427a34.889,34.889,0,0,1,.031-11.58,34.044,34.044,0,0,1,11.706-19.982,38.584,38.584,0,0,1,15.608-8.119,33.126,33.126,0,0,1,16.128-.582,37.494,37.494,0,0,1,15.781,8.04,215.024,215.024,0,0,1,21.288,20.706l.016.016a2.394,2.394,0,0,0,3.587-.047c1.809-2.093,3.587-4.17,5.4-6.215a146.007,146.007,0,0,1,13.2-13.642,42.445,42.445,0,0,1,13.594-8.544,33.476,33.476,0,0,1,24.514.22,46.445,46.445,0,0,1,10.149,5.995,35.623,35.623,0,0,1,10.4,11.171c5.35,9.425,5.932,19.337,2.281,29.407-3.005,8.323-8.339,15.089-15.1,20.753a1.1,1.1,0,0,1-.661.2c-5.727.016-11.439,0-17.166.016a.71.71,0,0,1-.708-.409c-1.495-2.706-3.005-5.381-4.5-8.087q-2.407-4.366-4.783-8.732c-.346-.629-.692-1.243-1.038-1.872a1.107,1.107,0,0,0-1.951.031c-5.365,10.29-10.683,20.517-16.049,30.807a1.033,1.033,0,0,1-1.825.016c-2.156-4.028-4.3-8.024-6.451-12.068a1.988,1.988,0,0,0-3.524.031c-2.03,3.918-4.028,7.788-6.058,11.706a1.235,1.235,0,0,1-2.187,0c-5.664-10.778-11.187-21.3-16.836-32.082a.475.475,0,0,0-.834-.016q-5.523,10.007-11.03,20.03a1.016,1.016,0,0,1-1.038.629c-2.659-.016-5.3-.016-7.961-.016h-6.026a3.337,3.337,0,0,0-3.336,3.336v1.353a3.4,3.4,0,0,0,3.4,3.4h6.53c4.17,0,8.323,0,12.493-.016a.776.776,0,0,0,.582-.378q2.455-4.413,4.878-8.843c.236-.441.488-.881.74-1.337a1.157,1.157,0,0,1,2.03.016c5.444,10.353,10.872,20.643,16.316,31a1.44,1.44,0,0,0,2.565-.016c2.344-4.531,4.657-9.016,7-13.531a.758.758,0,0,1,1.337-.016c2.455,4.563,4.878,9.079,7.332,13.642a1.28,1.28,0,0,0,2.266-.016c5.334-10.243,10.636-20.407,15.939-30.6a1.083,1.083,0,0,1,1.9-.031c.378.677.74,1.337,1.1,2,1.369,2.5,2.753,5,4.107,7.505a1,1,0,0,0,.991.614q11.447-.024,22.878-.016a6.388,6.388,0,0,0,4-1.416,61.277,61.277,0,0,0,14.4-16.615A44.287,44.287,0,0,0,1190.689,37.588ZM1033.568,170.856a14.153,14.153,0,1,1,14.035-14.114A14.155,14.155,0,0,1,1033.568,170.856Z" transform="translate(-850.013 0)" fill="#fff" stroke="#fff" stroke-miterlimit="10" stroke-width="1"/>
          </g>
        </g>
      </g>
    </g>
  </g>
</svg>
